<?xml version="1.0" encoding="utf-8"?>
<!-- Generator: Adobe Illustrator 22.1.0, SVG Export Plug-In . SVG Version: 6.00 Build 0)  -->
<svg version="1.1" id="Camada_1" xmlns="http://www.w3.org/2000/svg" xmlns:xlink="http://www.w3.org/1999/xlink" x="0px" y="0px"
	 viewBox="0 0 900 900" style="enable-background:new 0 0 900 900;" xml:space="preserve">
<style type="text/css">
	.st0{fill:#FFFFFF;}
</style>
<g transform="translate(0.000000,900.000000) scale(0.100000,-0.100000)">
	<path class="st0" d="M4210,8145c-401-59-752-210-1060-455c-108-86-297-281-377-386c-232-311-375-666-424-1054c-16-123-16-399,0-520
		c64-490,280-930,626-1275c356-356,822-575,1329-624c758-74,1519,275,1963,899c220,309,350,649,394,1030c19,165,7,463-25,632
		c-174,918-913,1624-1834,1752C4666,8163,4336,8164,4210,8145z M5160,7417c206-132,443-283,526-336l151-96l-663-3
		c-364-1-964-1-1333,0l-671,3l262,167c145,92,445,284,667,426l405,259l140-90C4722,7697,4954,7549,5160,7417z M5680,5890v-930h-115
		h-114l-3,723l-3,722l-24,48c-59,119-203,167-321,107c-49-25-104-89-118-139c-9-27-12-239-12-750v-711h-115h-115v713
		c0,471-4,725-11,750c-13,47-70,112-120,137c-113,58-246,17-310-95l-29-50v-727v-728h-115h-115v703c0,386-5,720-10,741
		c-13,56-58,116-115,151c-41,26-58,30-114,30c-97-1-168-44-214-130c-22-40-22-44-25-767l-3-728h-114h-115v930v930h1175h1175V5890z
		 M5810,4675v-125H4500H3190v118c0,65,3,122,7,125c3,4,593,7,1310,7h1303V4675z"/>
	<path class="st0" d="M2745,8034c-241-54-362-106-454-196c-62-62-89-105-129-208c-21-55-51-104-110-178c-44-56-106-141-138-187
		c-32-47-59-83-61-81c-2,1,17,54,43,117c59,145,73,216,75,359c0,124,12,273,24,305c10,30-121-111-167-178c-119-174-124-268-31-509
		l45-116l-74-149c-41-82-86-179-99-216s-27-67-32-67c-4,0-4,42,0,93c17,199,9,329-31,500c-20,86-37,185-37,218l-1,61l-21-34
		c-62-101-121-256-136-360c-20-132,16-235,147-419l68-96l-37-152c-21-84-43-187-50-229s-16-81-20-86c-7-8-22,56-53,227
		c-23,123-46,186-146,389c-48,97-92,199-97,225l-9,48l-24-110c-20-90-25-137-25-255c1-127,3-152,23-202c34-85,101-168,224-276
		c104-91,109-97,102-126c-4-17-7-132-7-255c0-255,5-252-75-51c-70,178-118,253-272,430c-104,119-136,162-164,215l-26,50l6-90
		c13-208,35-318,85-424c57-124,135-194,335-303c78-43,116-69,119-83c2-11,13-78,24-150c12-71,32-170,45-220c13-49,23-91,21-93
		c-3-4-46,53-141,187c-76,108-183,208-356,333c-77,55-162,123-189,151c-27,27-49,47-49,44c0-4,16-55,36-114c74-226,167-379,279-458
		c78-56,138-83,302-134l130-41l48-122c26-66,70-166,97-221c57-116,61-117-99,29c-144,130-243,188-548,320c-49,21-118,57-152,80
		l-62,41l42-66c140-224,288-380,420-441c97-45,181-65,339-81c64-6,120-15,125-18s31-42,58-85c27-44,84-126,127-184
		c43-57,78-106,78-108c0-4-67,35-178,105c-146,91-228,121-515,185c-109,25-224,57-255,71l-57,26l75-76c110-112,270-237,363-284
		c123-62,196-74,412-68l181,5l163-159c89-87,161-159,158-159c-2,0-67,25-143,55c-228,91-285,102-684,124c-91,5-178,14-194,20
		c-55,22-36,3,61-60c351-227,521-263,873-184c62,14,118,24,125,21c7-2,50-31,96-64s140-92,208-131c69-39,122-71,119-71
		c-2,0-72,12-154,26c-187,33-357,30-560-10c-72-14-167-28-210-32l-79-7l103-49c160-75,238-92,417-92c136,1,161,4,265,32
		c63,17,160,43,215,57c74,20,126,28,202,29l102,1l-84,30c-46,17-86,33-90,36c-3,4,6,50,20,104c14,53,25,114,25,134
		c0,74-82,192-222,320l-57,52l9-33c5-18,8-103,7-188c-2-151-1-157,25-210c15-31,43-74,63-97c19-23,35-44,35-48c0-12-166,81-284,160
		c-64,43-116,83-116,89c0,7,25,41,55,76c151,177,148,294-13,560c-50,82-52,84-52,50c0-44-19-112-61-220c-27-72-32-98-33-170
		c0-75,5-96,36-175c20-49,35-92,33-94c-7-6-111,89-220,198l-99,100l86,88c91,94,132,161,143,233c9,64-18,183-73,322l-47,117l-11-48
		c-6-26-38-103-72-172c-91-184-98-229-57-398c14-58,24-109,22-114c-5-15-159,194-250,340l-27,42l99,80c193,156,220,254,156,560
		c-23,108-35,145-35,107c0-27-44-105-104-186c-31-41-73-108-93-149c-35-68-37-80-38-165c0-50,4-122,8-161c5-47,5-67-2-60
		c-31,31-205,430-195,446c3,5,48,34,102,65c120,71,193,143,221,219c28,74,42,212,34,337l-6,101l-19-38c-11-20-72-92-137-159
		c-158-164-175-200-199-426l-8-75l-12,40c-18,59-70,321-78,391l-6,61l73,28c282,107,336,185,395,575l5,35l-24-30
		c-14-17-84-73-157-125c-176-126-216-177-264-344c-14-49-28-91-31-94c-7-7-6,297,1,395l7,81l106,26c239,58,326,142,420,409
		c17,49,31,91,31,93c0,3-15-6-33-20s-98-58-177-97c-169-85-232-140-293-256c-39-74-48-87-41-55c2,9,15,69,29,132s37,152,51,198
		l25,82h62c156,0,282,44,365,127c44,44,111,136,172,236l23,39l-31-16c-18-9-87-32-154-51c-68-19-143-42-168-51
		c-64-24-161-95-194-143c-54-78-39-31,43,133c94,189,76,176,250,176c221,0,319,53,489,262c61,75,62,77,29,63c-18-7-99-25-180-40
		c-139-25-227-48-279-76c-12-6-63-51-112-98l-90-86l49,70c77,110,194,258,229,286c17,15,72,49,121,77c178,100,257,157,344,245
		c47,48,110,107,140,130c29,23,63,50,75,59l21,17h-25C2866,8059,2806,8047,2745,8034z"/>
	<path class="st0" d="M6120,8050c0-5,21-23,46-41c26-17,92-78,148-134c106-107,188-166,349-255c53-29,115-68,136-87
		c43-36,148-166,226-278l48-70l-80,77c-109,105-167,131-375,170c-89,16-177,36-196,44c-40,16-45,24,60-103c84-102,136-144,224-184
		c65-30,78-32,228-39c141-5,160-8,173-25c17-23,122-230,147-289c16-38,14-37-44,27c-75,81-136,113-315,163c-71,20-148,45-169,56
		l-39,20l28-49c151-260,257-336,486-350c55-3,103-11,108-17c15-20,101-364,101-406c-1-8-17,17-38,55c-74,139-129,187-323,278
		c-63,30-128,66-145,80c-18,15-34,27-37,27c-8,0,59-177,94-247c40-83,114-162,187-201c33-18,106-43,162-56s106-28,112-34
		c5-5,12-114,15-243c3-150,2-230-4-224c-5,6-20,46-32,90c-47,166-96,227-287,363c-56,39-114,86-129,104l-27,33l7-55
		c25-196,74-341,138-409c48-51,121-94,230-136c53-21,97-43,97-49c0-31-43-269-67-368c-30-128-27-131-52,61c-17,131-48,187-184,328
		c-64,66-125,135-135,153l-20,32l-7-87c-4-47-4-123-1-168c17-203,73-287,269-398c48-28,87-57,87-65c0-39-184-454-196-441
		c-3,3-1,55,6,115c19,179-3,251-126,417c-37,50-78,115-92,145l-26,55l-12-55c-82-353-51-473,162-636c41-31,74-62,74-68
		c0-29-262-395-268-376c-2,6,5,50,16,98c44,184,39,222-53,412c-36,74-69,155-73,179l-7,45l-47-115c-114-283-103-389,62-555
		c44-45,80-86,80-92c0-24-293-312-305-300c-3,3,11,47,31,98c52,135,50,196-10,370c-28,81-46,151-46,179l-1,46l-35-55
		c-20-30-59-102-87-159c-65-136-73-208-33-297c15-32,54-91,86-130c33-40,60-76,60-81c0-18-375-253-404-253c-4,0,11,21,32,48
		c80,96,86,115,92,322c3,102,9,192,15,200c19,29-75-52-136-118c-144-156-162-217-115-382c14-50,26-93,26-95c0-4-50-23-135-53l-50-17
		l105-1c79-2,130-9,205-29c55-14,152-40,215-57c101-27,132-31,255-32c175-1,259,17,410,87c61,28,113,53,117,56s-28,7-70,8
		s-138,14-212,28c-204,40-383,44-569,11c-80-14-147-24-149-21c-2,2,24,18,59,35c81,42,219,127,299,186l63,46l146-30
		c80-17,176-33,212-37c139-12,298,29,467,121c84,45,291,181,262,171c-54-17-151-28-340-37c-266-12-350-29-554-110
		c-86-35-158-61-161-59c-2,2,31,33,72,69s114,106,162,157l86,91l180-5c275-9,380,21,565,161c105,79,308,273,265,252
		c-55-26-157-55-302-85c-260-55-364-97-590-239c-46-29-83-50-83-47s31,47,69,97c37,51,96,136,129,189l62,96l125,12
		c348,34,503,133,722,466c83,126,82,123,53,103c-61-43-136-81-280-143c-250-109-323-155-495-314c-54-50-99-90-101-88s17,46,43,98
		c25,52,67,148,93,214l48,120l148,50c82,28,182,68,222,89c146,78,255,235,341,493c23,68,41,125,41,127c0,3-21-18-47-46
		c-27-28-109-95-184-149c-215-156-291-229-402-389c-37-52-76-106-88-120l-21-25l6,25c4,14,16,62,27,107c11,46,30,144,43,220l23,137
		l110,62c61,34,130,75,154,92c59,40,152,139,177,187c50,100,92,301,92,445v75l-29-50c-16-27-73-102-128-165
		c-185-215-232-288-299-460c-33-86-71-170-77-170c-1,0-2,116-1,257v257l102,91c196,175,252,281,252,476c0,61-28,252-48,324
		c-8,29-9,29-21-20c-6-28-48-121-92-208c-95-189-132-294-159-456c-33-194-38-198-65-56c-12,66-37,173-54,238l-32,119l66,91
		c36,51,85,130,108,176c42,84,42,85,41,195c0,99-4,120-31,191c-16,44-51,121-76,170l-46,90l-1-60c0-33-11-105-24-160
		c-54-223-59-266-52-467c4-104,5-188,3-188s-12,21-22,48c-9,26-53,123-98,215l-81,168l18,47c72,186,89,247,89,322
		c0,89-22,151-89,249c-49,73-192,231-173,191c8-15,15-103,20-230c8-224,17-278,61-390c17-41,39-96,49-122c10-27,17-48,14-48
		c-2,0-23,28-46,63c-54,80-152,210-199,264c-21,24-47,71-60,105c-38,107-80,176-143,234c-94,87-211,136-448,188
		C6129,8063,6120,8064,6120,8050z"/>
	<path class="st0" d="M7329,3245c-213-42-374-191-414-382c-53-249,41-489,233-591c107-57,198-76,362-75c169,0,261,17,367,67
		c165,78,251,211,268,412c8,104-14,227-56,313c-62,127-197,223-357,256C7642,3263,7422,3263,7329,3245z M7685,3028
		c57-30,84-56,114-112c49-93,54-266,11-364c-49-112-143-157-314-150c-113,5-157,21-212,80c-45,47-62,87-74,167
		c-28,196,51,354,200,402c14,5,70,7,125,6C7620,3054,7643,3050,7685,3028z"/>
	<path class="st0" d="M850,2923c0-181,5-357,10-393c37-228,207-333,545-332c253,0,403,57,486,185c63,96,69,146,69,531v336h-150h-150
		v-318c0-357-5-394-62-449c-50-49-95-63-195-63c-129,1-188,33-230,125c-16,35-18,78-21,373l-3,332H999H850V2923z"/>
	<path class="st0" d="M2070,2730v-520h130h130l2,368l3,367l234-367l234-368h194h193v520v521l-132-3l-133-3l-5-362l-5-362l-230,362
		l-231,362l-192,3l-192,2V2730z"/>
	<path class="st0" d="M3300,2730v-520h150h150v520v520h-150h-150V2730z"/>
	<path class="st0" d="M3720,2730v-520h450h450v115v115h-305h-305v95v95h280h280v110v110h-280h-280v90v90h295h295v110v110h-440h-440
		V2730z"/>
	<path class="st0" d="M4672,2873c3-368,4-379,26-435c65-161,238-240,522-240c225,0,365,44,454,143c92,102,108,198,104,614l-3,290
		h-150h-150l-5-345c-6-382-6-383-72-433c-52-39-101-50-204-45c-84,3-98,7-135,33c-23,17-52,48-63,70c-20,38-21,58-24,383l-3,342
		h-150h-150L4672,2873z"/>
	<path class="st0" d="M5890,2730v-520h145h145v200v200h98c142,0,220-14,250-43c20-20,27-46,44-153c11-71,24-146,30-166l9-38h154
		c85,0,155,1,155,3c0,1-7,23-14,48c-8,25-24,109-36,185s-30,158-40,181c-21,47-65,80-120,89c-63,10-66,16-19,30
		c125,37,195,125,193,244c-1,142-92,227-266,250c-40,5-220,10-400,10h-328V2730z M6500,3034c52-12,73-37,78-97c4-49,1-58-21-80
		c-36-37-86-47-239-47h-138v122v121l148-6C6409,3043,6486,3037,6500,3034z"/>
	<path class="st0" d="M850,1980v-60h3650h3650v60v60H4500H850V1980z"/>
	<path class="st0" d="M6908,1850c-28-25-30-29-13-29c11,0,45,13,75,29l55,29l-42,1C6949,1880,6933,1874,6908,1850z"/>
	<path class="st0" d="M3040,1815c-8-2-32-6-53-10c-23-4-53-20-76-41c-87-78-72-229,27-287c79-46,245-27,296,33c74,88,49,233-47,278
		C3146,1808,3070,1821,3040,1815z M3143,1709c37-40,39-114,3-156c-21-25-31-28-81-28s-60,3-81,28c-34,40-34,114,1,156
		C3027,1758,3096,1759,3143,1709z"/>
	<path class="st0" d="M7882,1809c-59-11-102-38-130-80c-20-29-23-44-20-104c4-82,27-122,85-151c47-22,145-30,200-15
		c115,31,166,151,111,261C8091,1792,7986,1830,7882,1809z M7971,1740c49-14,69-47,69-113c0-81-44-117-127-104c-58,10-78,37-78,106
		c0,49,4,64,24,85c13,14,33,27,45,29c11,2,23,5,26,6C7933,1749,7951,1745,7971,1740z"/>
	<path class="st0" d="M940,1788c-63-32-93-91-87-170c9-103,61-154,170-165c99-10,197,40,197,101c0,24-3,26-49,26c-41,0-51-4-56-20
		c-8-25-60-40-100-28c-45,12-57,34-57,103c0,44,4,58,27,80c33,34,87,34,121,0c30-30,114-37,114-9s-33,73-66,89
		C1104,1819,994,1815,940,1788z"/>
	<path class="st0" d="M1280,1635v-175h150h150v35v34l-102,3l-103,3v30v30l98,3l97,3v34v34l-97,3l-98,3l-3,27l-3,27l103,3l103,3l3,38
		l3,37h-150h-151V1635z"/>
	<path class="st0" d="M1637,1803c-4-3-7-82-7-175v-168h50h50v118v117l76-117l76-118h69h69v175v175h-50h-50v-122v-122l-77,122
		l-76,122h-62C1671,1810,1640,1807,1637,1803z"/>
	<path class="st0" d="M2060,1770v-40h65h65v-135v-135h50h50v135v134l68,3l67,3l3,38l3,37h-185h-186V1770z"/>
	<path class="st0" d="M2470,1636v-176h50h50v65v65h54c31,0,58-5,64-12c5-7,13-37,17-65l7-53h55c47,0,54,2,49,18c-2,9-8,37-11,62
		c-8,54-29,90-53,90c-12,1-9,5,10,16c53,28,63,85,24,131c-24,28-24,28-170,31l-146,4V1636z M2694,1724c35-35,4-64-70-64h-54v40v40
		h54C2660,1740,2684,1735,2694,1724z"/>
	<path class="st0" d="M3522,1671c3-138,3-140,32-170c51-53,196-67,274-27c53,28,66,65,70,209l4,127h-56h-56v-120c0-143-9-160-84-160
		c-36,0-48,5-65,26c-18,23-21,41-21,140v114h-51h-51L3522,1671z"/>
	<path class="st0" d="M3970,1635v-175h45h44l3,120l3,120l75-119l75-120l68-1h67v175v175h-45h-44l-3-120l-3-120l-75,119l-75,120
		l-67,1h-68V1635z"/>
	<path class="st0" d="M4430,1635v-175h50h50v175v175h-50h-50V1635z"/>
	<path class="st0" d="M4576,1788c4-12,35-90,69-173l63-150l63-3l64-2l67,158c37,88,70,167,74,176c5,13-2,16-43,16h-49l-49-122
		c-27-68-51-126-55-130c-3-4-27,51-54,122l-49,130h-54C4571,1810,4569,1809,4576,1788z"/>
	<path class="st0" d="M5020,1635v-175h150h150v35v35h-99h-99l-4,30c-3,17-2,32,0,35c3,3,47,5,99,5h93v35v35h-95c-75,0-95,3-95,14
		c0,8-3,21-6,30c-5,13,9,16,98,18l103,3l3,38l3,37h-150h-151V1635z"/>
	<path class="st0" d="M5380,1635v-175h50h50v65v65h44c63,0,75-7,81-48c14-86,11-82,68-82h53l-15,76c-13,68-18,78-42,88l-28,12l29,12
		c36,16,55,61,43,99c-16,49-61,63-205,63h-128V1635z M5598,1728c18-18,14-46-7-58c-11-5-40-10-65-10h-46v40v40h53
		C5562,1740,5591,1735,5598,1728z"/>
	<path class="st0" d="M5823,1791c-87-55-66-155,38-180c98-24,124-35,124-56c0-45-96-45-117,1c-10,22-17,25-57,22c-44-3-46-4-44-32
		c5-64,81-102,184-93c72,6,116,29,136,71c34,71-2,118-112,146c-87,22-117,42-97,62c19,19,92,16,107-5c8-12,26-17,59-17
		c44,0,47,1,41,23c-4,12-18,33-31,47c-22,22-34,25-112,28C5869,1810,5850,1808,5823,1791z"/>
	<path class="st0" d="M6160,1635v-175h50h50v175v175h-50h-50V1635z"/>
	<path class="st0" d="M6308,1775c-2-20-2-38,1-40c2-3,33-5,68-5h63v-135v-135h50h50v135v135h65h65v40v40h-179h-179L6308,1775z"/>
	<path class="st0" d="M6837,1788c-20-32-167-317-167-323c0-3,24-5,54-5c53,0,55,1,66,35l12,35h94h94l17-35c16-34,18-35,75-35h58
		l-87,175l-88,175h-57C6859,1810,6848,1807,6837,1788z M6935,1657l25-57h-60h-60l31,61c16,34,32,59,34,57
		C6908,1716,6921,1688,6935,1657z"/>
	<path class="st0" d="M7160,1636v-176h50h50v65v65h54c31,0,58-5,64-13c6-7,14-36,18-65l7-52h54c47,0,54,2,49,18c-2,9-8,37-11,62
		c-8,54-29,90-53,90c-12,1-9,5,10,16c53,28,63,85,24,131c-24,28-24,28-170,31l-146,4V1636z M7384,1724c35-35,4-64-70-64h-54v40v40
		h54C7350,1740,7374,1735,7384,1724z"/>
	<path class="st0" d="M7560,1635v-175h55h55v175v175h-55h-55V1635z"/>
	<path class="st0" d="M850,1295v-55h3650h3650v55v55H4500H850V1295z"/>
	<path class="st0" d="M935,1111c-50-23-75-65-75-126c0-59,28-108,73-126c34-15,173-19,217-7c24,7,25,11,25,78v70h-77
		c-77,0-78,0-78-25c0-22,4-25,35-25s35-3,35-25c0-23-3-25-48-25c-57,0-88,19-97,60c-19,88,62,151,128,100c15-12,40-20,62-20
		c32,0,36,3,33,22c-2,12-18,33-37,45C1087,1136,994,1138,935,1111z"/>
	<path class="st0" d="M1220,990V850h40h40v50v50h44c49,0,57-7,66-60c5-33,8-35,48-38l43-3l-7,48c-8,60-20,83-42,83c-13,1-10,6,11,21
		c27,21,37,68,19,96c-14,23-64,33-163,33h-99V990z M1405,1040c0-23-4-25-52-28l-53-3v31v31l53-3C1401,1065,1405,1063,1405,1040z"/>
	<path class="st0" d="M1540,1037c0-151,23-185,129-194c100-9,168,32,171,102c1,17,2,65,1,108l-1,77h-40h-40v-91c0-50-4-99-10-109
		c-14-27-65-35-95-16c-23,15-24,23-27,113l-3,98l-42,3l-43,3V1037z"/>
	<path class="st0" d="M1908,1124c-5-4-8-67-8-141V850h39h40l3,48l3,47l73,5c62,4,77,9,93,29c27,33,24,84-5,118c-23,27-29,28-128,31
		C1962,1130,1912,1128,1908,1124z M2084,1047c15-25-16-47-66-47c-37,0-38,1-38,36v35l46-3C2058,1066,2076,1059,2084,1047z"/>
	<path class="st0" d="M2274,1116c-92-40-111-175-34-240c61-51,188-47,248,8c30,28,36,40,39,87c8,104-49,159-162,159
		C2332,1129,2291,1123,2274,1116z M2425,1049c30-29,28-104-4-130s-95-25-121,1c-22,22-27,88-9,121C2313,1083,2386,1088,2425,1049z"
		/>
	<path class="st0" d="M2727,1123c-4-3-7-66-7-140V850h125h125v30v30h-85c-84,0-85,0-85,25s1,25,80,25h80v30v30h-81c-78,0-80,1-77,23
		c3,20,9,22,81,25l77,3v29v30h-113C2784,1130,2730,1127,2727,1123z"/>
	<path class="st0" d="M3010,989V848l124,4c116,3,126,5,150,27c55,51,58,146,8,202c-33,37-79,48-194,49h-88V989z M3220,1040
		c23-23,27-77,6-105c-10-13-30-20-75-23l-61-4v76v76h55C3187,1060,3205,1055,3220,1040z"/>
	<path class="st0" d="M3374,1115c-11-29,2-199,17-223c21-34,88-55,154-50c104,9,138,61,133,202l-3,81l-42,3l-43,3v-100
		c0-92-2-101-22-115c-12-9-32-16-43-16s-31,7-43,16c-20,14-22,23-22,115v99h-40C3393,1130,3377,1125,3374,1115z"/>
	<path class="st0" d="M3790,1112c-50-27-72-74-66-138c6-65,21-90,72-114c77-38,184-17,212,43c17,35,9,47-30,47c-20,0-39-9-54-25
		c-27-30-63-32-94-7s-34,100-6,131c25,28,79,28,105,0s88-24,83,6c-2,11-14,31-28,45C3951,1134,3843,1141,3790,1112z"/>
	<path class="st0" d="M4092,990l-73-140h44c37,0,46,4,55,25c11,23,16,25,87,25s76-2,87-25c9-21,18-25,55-25c23,0,43,2,43,4
		s-29,65-65,140l-64,136h-48h-48L4092,990z M4230,1014c11-26,20-48,20-50s-20-4-45-4s-45,2-45,5c0,6,43,95,47,95
		C4208,1060,4218,1039,4230,1014z"/>
	<path class="st0" d="M4464,1111c-33-15-45-28-59-65c-41-108,27-206,143-206c76,0,142,43,142,92c0,14-8,18-39,18c-30,0-42-5-55-25
		c-20-31-67-34-96-5c-27,27-28,110-2,133c27,24,88,22,102-3c8-15,21-20,50-20c49,0,52,16,11,62c-25,29-35,32-92,35
		C4521,1130,4494,1126,4464,1111z"/>
	<path class="st0" d="M4730,992V852l41-4c23-2,43,1,45,7c2,5,3,69,1,140l-2,130l-42,3l-43,3V992z"/>
	<path class="st0" d="M4944,1116c-92-40-111-175-34-240c61-51,188-47,248,8c30,28,36,40,39,87c8,104-49,159-162,159
		C5002,1129,4961,1123,4944,1116z M5095,1049c30-29,28-104-4-130s-95-25-121,1c-22,22-27,88-9,121C4983,1083,5056,1088,5095,1049z"
		/>
	<path class="st0" d="M5250,987V844l35,4l34,4l3,91l3,91l58-92l59-92h54h54v140v140h-35h-35v-97c-1-113,2-114-83,21l-48,76h-49h-50
		V987z"/>
	<path class="st0" d="M5641,990l-72-140h44c37,0,46,4,55,25c11,23,16,25,87,25s76-2,87-25c9-21,18-25,55-25c23,0,43,2,43,4
		s-30,65-66,140l-66,136h-48h-47L5641,990z M5800,968c0-5-20-8-45-8s-45,2-45,5c0,2,10,25,22,50l22,46l23-43
		C5789,994,5799,972,5800,968z"/>
	<path class="st0" d="M5960,990V850h115h115v30v30h-75h-75v110v110h-40h-40V990z"/>
	<path class="st0" d="M6433,1115c-66-28-95-134-57-206c52-102,274-85,274,20c0,18-6,21-40,21c-28,0-40-4-40-15c0-8-9-19-19-25
		c-61-32-116,14-108,89c6,52,26,71,74,71c22,0,37-7,45-20c16-26,88-29,88-4c0,26-19,53-50,69C6564,1134,6476,1134,6433,1115z"/>
	<path class="st0" d="M6700,990V850h120h120v30v30h-80c-79,0-80,0-80,25c0,24,2,25,75,25h75v30v30h-75c-73,0-75,1-75,25
		c0,25,1,25,80,25h80v30v30h-120h-120V990z"/>
	<path class="st0" d="M6982,1023c2-72,9-116,18-131c22-34,89-55,155-50c104,9,138,61,133,202l-3,81l-42,3l-43,3v-100
		c0-92-2-101-22-115c-12-9-32-16-43-16s-31,7-43,16c-20,14-22,23-22,115v99h-46h-46L6982,1023z"/>
	<path class="st0" d="M7346,1122c-2-4-4-67-4-140V850h40h39l-3,99c-2,55-1,98,2,96s23-47,44-99l39-96h46h46l42,103l42,102l1-102V850
		h35h35v140v140h-54h-54l-42-101c-24-55-46-97-50-92c-4,4-24,50-45,101l-38,92h-58C7377,1130,7349,1126,7346,1122z"/>
	<path class="st0" d="M7843,990l-73-140h43c37,0,46,4,55,25c11,24,16,25,91,25c76,0,79-1,85-25c6-22,11-25,56-25h50l-70,140l-70,140
		h-48h-47L7843,990z M7978,1023c5-16,13-36,17-45c6-16,1-18-39-18h-46l22,45c12,25,25,45,29,45S7973,1038,7978,1023z"/>
</g>
</svg>
